{"title":"Big.Brother.Canada.S02E01.WEB-DL.x264-DARKCROWN","uid":9712989,"size":269105453,"categoryP":"video","categoryS":"tv_shows","magnet":"?xt=urn:btih:5a7bd3e7822c8bb3df7ef03a3133efcd3a357845&amp;dn=Big.Brother.Canada.S02E01.WEB-DL.x264-DARKCROWN&amp;tr=udp%3A%2F%2Ftracker.openbittorrent.com%3A80&amp;tr=udp%3A%2F%2Fopen.demonii.com%3A1337&amp;tr=udp%3A%2F%2Ftracker.coppersurfer.tk%3A6969&amp;tr=udp%3A%2F%2Fexodus.desync.com%3A6969","seeders":3,"leechers":0,"uploader":"theacidwiz","files":1,"time":1394130109,"description":"Big.Brother.Canada.S02E01.WEB-DL.x264-DARKCROWN\n\nGeneral\nComplete name                  : Big.Brother.Canada.S02E01.WEB-DL.x264-DARKCROWN.mp4\nFormat                         : MPEG-4\nFormat profile                 : Base Media / Version 2\nCodec ID                       : mp42\nFile size                      : 257 MiB\nDuration                       : 44mn 8s\nOverall bit rate mode          : Variable\nOverall bit rate               : 813 Kbps\nEncoded date                   : UTC 2014-03-06 01:39:35\nTagged date                    : UTC 2014-03-06 01:39:35\n\nVideo\nID                             : 1\nFormat                         : AVC\nFormat/Info                    : Advanced Video Codec\nFormat profile                 : &lt;a class=&quot;__cf_email__&quot; href=&quot;/cdn-cgi/l/email-protection&quot; data-cfemail=&quot;490428202709057a6778&quot;&gt;[email&amp;#160;protected]&lt;/a&gt;&lt;script cf-hash='f9e31' type=&quot;text/javascript&quot;&gt;\n/* &lt;![CDATA[ */!function(){try{var t=&quot;currentScript&quot;in document?document.currentScript:function(){for(var t=document.getElementsByTagName(&quot;script&quot;),e=t.length;e--;)if(t[e].getAttribute(&quot;cf-hash&quot;))return t[e]}();if(t&amp;&amp;t.previousSibling){var e,r,n,i,c=t.previousSibling,a=c.getAttribute(&quot;data-cfemail&quot;);if(a){for(e=&quot;&quot;,r=parseInt(a.substr(0,2),16),n=2;a.length-n;n+=2)i=parseInt(a.substr(n,2),16)^r,e+=String.fromCharCode(i);e=document.createTextNode(e),c.parentNode.replaceChild(e,c)}}}catch(u){}}();/* ]]&gt; */&lt;/script&gt;\nFormat settings, CABAC         : Yes\nFormat settings, ReFrames      : 4 frames\nCodec ID                       : avc1\nCodec ID/Info                  : Advanced Video Coding\nDuration                       : 44mn 8s\nSource duration                : 44mn 8s\nBit rate mode                  : Variable\nBit rate                       : 763 Kbps\nMaximum bit rate               : 840 Kbps\nWidth                          : 960 pixels\nHeight                         : 544 pixels\nDisplay aspect ratio           : 16:9\nFrame rate mode                : Constant\nFrame rate                     : 29.970 fps\nColor space                    : YUV\nChroma subsampling             : 4:2:0\nBit depth                      : 8 bits\nScan type                      : Progressive\nBits/(Pixel*Frame)             : 0.049\nStream size                    : 241 MiB (94%)\nSource stream size             : 241 MiB (94%)\nLanguage                       : English\nEncoded date                   : UTC 2014-03-06 01:39:35\nTagged date                    : UTC 2014-03-06 01:39:35\n\nAudio\nID                             : 2\nFormat                         : AAC\nFormat/Info                    : Advanced Audio Codec\nFormat profile                 : LC\nCodec ID                       : 40\nDuration                       : 44mn 8s\nBit rate mode                  : Variable\nBit rate                       : 45.6 Kbps\nMaximum bit rate               : 449 Kbps\nChannel(s)                     : 2 channels\nChannel positions              : Front: L R\nSampling rate                  : 44.1 KHz\nCompression mode               : Lossy\nStream size                    : 14.4 MiB (6%)\nLanguage                       : English\nEncoded date                   : UTC 2014-03-06 01:39:35\nTagged date                    : UTC 2014-03-06 01:39:35\nmdhd_Duration                  : 2648050","torrent":{"xt":"urn:btih:5a7bd3e7822c8bb3df7ef03a3133efcd3a357845","amp;dn":"Big.Brother.Canada.S02E01.WEB-DL.x264-DARKCROWN","amp;tr":["udp%3A%2F%2Ftracker.openbittorrent.com%3A80","udp%3A%2F%2Fopen.demonii.com%3A1337","udp%3A%2F%2Ftracker.coppersurfer.tk%3A6969","udp%3A%2F%2Fexodus.desync.com%3A6969"],"infoHash":"5a7bd3e7822c8bb3df7ef03a3133efcd3a357845","infoHashBuffer":{"type":"Buffer","data":[90,123,211,231,130,44,139,179,223,126,240,58,49,51,239,205,58,53,120,69]},"announce":[],"urlList":[]}}